<svg width="125" height="30" viewBox="0 0 125 30" fill="none" xmlns="http://www.w3.org/2000/svg">
<path d="M39.2327 21.7178C41.21 22.9986 44.1888 23.6264 47.2703 23.6264C51.9696 23.6264 55.3335 21.5672 55.3335 17.5743C55.3335 14.5105 53.1765 12.9285 49.3503 12.4513L44.5996 11.8486C43.4954 11.6979 43.0075 11.4217 43.0075 10.6683C43.0075 9.53827 44.6253 9.16158 47.0648 9.16158C49.9152 9.16158 52.7399 10.2665 54.178 11.8737L53.4846 6.97679C51.9696 5.89696 49.6841 5.34448 46.6283 5.34448C41.6722 5.34448 38.5137 7.32837 38.5137 11.0952C38.5137 14.1087 40.3112 15.6908 43.8036 16.1429L48.7597 16.7958C50.172 16.9716 50.8397 17.298 50.8397 18.1016C50.8397 19.2819 49.5044 19.8093 47.0648 19.8093C44.2401 19.8093 41.1329 18.9052 38.5907 16.7958L39.2327 21.7178Z" fill="#1A202C"/>
<path d="M60.4409 23.2748H64.8577L67.8622 14.5608L70.841 23.2748H75.2578L79.7773 10.1159H75.1037L72.9466 17.5492L70.199 10.1159H65.5767L62.829 17.5492L60.6977 10.1159H55.9213L60.4409 23.2748Z" fill="#1A202C"/>
<path d="M84.1801 27.7951C87.0561 27.7951 88.186 26.7906 89.3416 24.0282L95.1708 10.1159H90.5228L87.6725 17.3985L84.745 10.1159H79.9173L85.2586 22.1196L85.1816 22.2954C84.7193 23.3501 84.3598 23.9277 83.0245 23.9277C82.3825 23.9277 81.6378 23.8273 80.9702 23.5259L81.5608 27.343C82.2798 27.6444 83.2299 27.7951 84.1801 27.7951Z" fill="#1A202C"/>
<path d="M95.3341 16.6953C95.3341 20.864 98.3899 23.5762 103.038 23.5762C105.195 23.5762 106.864 23.1241 107.84 22.3708L108.507 17.9258C107.48 19.1061 105.914 19.8595 103.834 19.8595C101.24 19.8595 99.8536 18.4532 99.8536 16.6953C99.8536 14.9375 101.24 13.5312 103.783 13.5312C105.811 13.5312 107.403 14.4101 108.353 15.515L107.686 11.045C106.89 10.3168 105.298 9.81451 103.012 9.81451C98.3899 9.81451 95.3341 12.5267 95.3341 16.6953Z" fill="#1A202C"/>
<path d="M115.163 23.2748V14.6612C115.626 13.9581 116.524 13.6065 117.552 13.6065C119.041 13.6065 119.965 14.4603 119.965 15.9168V23.2748H124.434V15.0379C124.434 11.924 122.867 9.81451 119.632 9.81451C116.91 9.81451 115.651 11.1706 115.163 13.6818V4.44043L110.695 4.94268V23.2748H115.163Z" fill="#1A202C"/>
<path fill-rule="evenodd" clip-rule="evenodd" d="M3.17269 14.2968C3.32503 14.2326 3.47639 14.1689 3.6204 14.1092C10.6835 11.1927 15.0592 14.056 18.3337 20.0243C19.2434 21.6774 20.2664 23.4967 20.7811 24.4108C20.9716 24.7407 20.8591 25.1605 20.5285 25.3542L15.8798 28.0526C15.7158 28.1481 15.5196 28.174 15.3359 28.1243C15.1522 28.0746 14.9967 27.9535 14.9049 27.7887L12.4839 23.4552C10.7297 20.298 9.46203 18.9521 6.24158 20.3076C5.91568 20.4455 5.60682 20.5782 5.3377 20.6937C5.22899 20.7404 5.12675 20.7843 5.0325 20.8246C4.85448 20.9041 4.65102 20.907 4.47075 20.8327C4.29048 20.7583 4.14958 20.6132 4.08171 20.4322L2.0085 15.5314C1.86113 15.1813 2.02458 14.7791 2.3761 14.6268C2.61982 14.5297 2.89784 14.4126 3.17269 14.2968ZM27.2713 15.6909C27.119 15.7551 26.9676 15.8189 26.8236 15.8786C19.7564 18.8007 15.3848 15.9318 12.1237 9.96884C11.2141 8.31571 10.1911 6.49639 9.67632 5.58227C9.4859 5.25238 9.59833 4.83258 9.92898 4.63889L14.5776 1.94054C14.7417 1.84497 14.9379 1.81909 15.1216 1.8688C15.3052 1.9185 15.4607 2.03955 15.5526 2.20436L17.9788 6.55446C19.7331 9.71166 21.0007 11.0576 24.2212 9.70202C24.5471 9.56412 24.8559 9.4315 25.1251 9.31594C25.2338 9.26926 25.336 9.22537 25.4302 9.18503C25.6034 9.11042 25.7996 9.10763 25.9749 9.1773C26.1501 9.24696 26.2897 9.38323 26.3623 9.55552L28.4355 14.4563C28.5829 14.8064 28.4194 15.2087 28.0679 15.3609C27.8242 15.458 27.5462 15.5752 27.2713 15.6909Z" fill="#194BFB"/>
</svg>
