<svg width="132" height="30" viewBox="0 0 132 30" fill="none" xmlns="http://www.w3.org/2000/svg">
<path d="M45.6112 21.328C47.4414 22.5345 50.1986 23.1259 53.0509 23.1259C57.4007 23.1259 60.5145 21.1861 60.5145 17.4248C60.5145 14.5388 58.5179 13.0484 54.9762 12.599L50.5789 12.0312C49.5569 11.8893 49.1052 11.6291 49.1052 10.9194C49.1052 9.85488 50.6027 9.50005 52.8608 9.50005C55.4992 9.50005 58.1138 10.5409 59.4449 12.0549L58.8031 7.44198C57.4007 6.42478 55.2852 5.90435 52.4567 5.90435C47.8692 5.90435 44.9456 7.77316 44.9456 11.3216C44.9456 14.1603 46.6095 15.6506 49.8421 16.0764L54.4296 16.6914C55.7369 16.857 56.3549 17.1646 56.3549 17.9216C56.3549 19.0334 55.1189 19.5302 52.8608 19.5302C50.2462 19.5302 47.3701 18.6785 45.0169 16.6914L45.6112 21.328Z" fill="#1A202C"/>
<path d="M65.242 22.7947H69.3303L72.1113 14.5861L74.8685 22.7947H78.9568L83.1402 10.399H78.8142L76.8176 17.4011L74.2743 10.399H69.9958L67.4525 17.4011L65.4797 10.399H61.0586L65.242 22.7947Z" fill="#1A202C"/>
<path d="M87.2155 27.0527C89.8777 27.0527 90.9235 26.1065 91.9931 23.5043L97.3888 10.399H93.0865L90.4481 17.2592L87.7384 10.399H83.2698L88.2138 21.7065L88.1425 21.8721C87.7147 22.8656 87.3819 23.4097 86.1459 23.4097C85.5517 23.4097 84.8624 23.3151 84.2444 23.0312L84.7911 26.6269C85.4566 26.9108 86.3361 27.0527 87.2155 27.0527Z" fill="#1A202C"/>
<path d="M97.5399 16.5968C97.5399 20.5237 100.368 23.0785 104.671 23.0785C106.667 23.0785 108.212 22.6527 109.116 21.9431L109.734 17.756C108.783 18.8678 107.333 19.5775 105.408 19.5775C103.007 19.5775 101.723 18.2527 101.723 16.5968C101.723 14.9409 103.007 13.6162 105.36 13.6162C107.238 13.6162 108.711 14.4441 109.591 15.485L108.973 11.2742C108.236 10.5882 106.762 10.1151 104.647 10.1151C100.368 10.1151 97.5399 12.6699 97.5399 16.5968Z" fill="#1A202C"/>
<path d="M115.894 22.7947V14.6807C116.322 14.0183 117.154 13.6871 118.105 13.6871C119.484 13.6871 120.339 14.4914 120.339 15.8635V22.7947H124.475V15.0355C124.475 12.1022 123.025 10.1151 120.03 10.1151C117.511 10.1151 116.346 11.3925 115.894 13.7581V5.05273L111.759 5.52585V22.7947H115.894Z" fill="#1A202C"/>
<path fill-rule="evenodd" clip-rule="evenodd" d="M2.93695 14.3376C3.07794 14.2771 3.21803 14.2171 3.35132 14.1608C9.88908 11.4136 13.9393 14.1108 16.9703 19.7329C17.8123 21.2901 18.7592 23.0039 19.2357 23.865C19.412 24.1758 19.3079 24.5712 19.0018 24.7537L14.6989 27.2955C14.5471 27.3855 14.3655 27.4099 14.1954 27.3631C14.0254 27.3162 13.8815 27.2022 13.7965 27.047L11.5556 22.9648C9.93184 19.9907 8.75847 18.7228 5.77754 19.9998C5.47587 20.1297 5.18998 20.2546 4.94086 20.3635C4.84024 20.4075 4.74563 20.4488 4.65839 20.4868C4.49361 20.5617 4.30529 20.5644 4.13843 20.4944C3.97156 20.4243 3.84114 20.2877 3.77832 20.1172L1.85931 15.5006C1.7229 15.1708 1.87419 14.7919 2.19957 14.6485C2.42518 14.557 2.68253 14.4467 2.93695 14.3376ZM25.243 15.6507C25.102 15.7111 24.9619 15.7712 24.8286 15.8275C18.287 18.5801 14.2405 15.8776 11.222 10.2605C10.38 8.70324 9.43309 6.98945 8.95662 6.12835C8.78036 5.81759 8.88443 5.42214 9.19049 5.23969L13.4934 2.69785C13.6452 2.60783 13.8269 2.58345 13.9969 2.63027C14.1669 2.67709 14.3108 2.79112 14.3958 2.94637L16.6416 7.04415C18.2654 10.0182 19.4388 11.2861 22.4197 10.0091C22.7214 9.87923 23.0073 9.75428 23.2564 9.64542C23.357 9.60146 23.4516 9.56013 23.5388 9.52214C23.6991 9.45186 23.8807 9.44924 24.0429 9.51486C24.2051 9.58048 24.3343 9.70885 24.4015 9.87114L26.3206 14.4877C26.457 14.8175 26.3057 15.1964 25.9803 15.3398C25.7547 15.4313 25.4974 15.5416 25.243 15.6507Z" fill="#194BFB"/>
</svg>
