<svg xmlns="http://www.w3.org/2000/svg" viewBox="0 0 24 20" fill="black"><path d="M7.55,20c9.06,0,14-7.7,14-14.37,0-.22,0-.44,0-.65A10.17,10.17,0,0,0,24,2.36a9.62,9.62,0,0,1-2.83.79A5,5,0,0,0,23.34.37a9.72,9.72,0,0,1-3.13,1.23A4.89,4.89,0,0,0,17.42.07,4.82,4.82,0,0,0,14.29.6,5,5,0,0,0,12.13,3a5.17,5.17,0,0,0-.31,3.23A13.71,13.71,0,0,1,6.2,4.67,14.05,14.05,0,0,1,1.67.92,5.17,5.17,0,0,0,1.13,4.6,5.06,5.06,0,0,0,3.19,7.66,4.79,4.79,0,0,1,1,7v.06a5.13,5.13,0,0,0,1.11,3.2A4.91,4.91,0,0,0,4.91,12a4.8,4.8,0,0,1-2.22.09,5.05,5.05,0,0,0,1.75,2.51,4.85,4.85,0,0,0,2.85,1,9.79,9.79,0,0,1-3.44,1.79,9.64,9.64,0,0,1-3.85.3A13.69,13.69,0,0,0,7.55,20Z"></path></svg>