<svg xmlns="http://www.w3.org/2000/svg" viewBox="0 0 31 20" fill="#194bfb"><path d="M10.5,2A5.5,5.5,0,1,0,16,7.5,5.5,5.5,0,0,0,10.5,2ZM3,7.5A7.5,7.5,0,1,1,10.5,15,7.5,7.5,0,0,1,3,7.5Z"></path><path d="M20.68,0h0a7.5,7.5,0,0,1,0,15,1,1,0,0,1,0-2,5.5,5.5,0,0,0,0-11,5.81,5.81,0,0,0-1.5.2A1,1,0,1,1,18.66.27,7.81,7.81,0,0,1,20.68,0Z"></path><path d="M10.5,15a10,10,0,0,0-8.18,4.25A1,1,0,0,1,.68,18.1a12,12,0,0,1,19.64,0,1,1,0,0,1-1.64,1.15A10,10,0,0,0,10.5,15Z"></path><path d="M25.3,16.12A10,10,0,0,0,20.69,15a1,1,0,0,1,0-2,12,12,0,0,1,9.82,5.1,1,1,0,0,1-1.64,1.15A10,10,0,0,0,25.3,16.12Z"></path></svg>