<svg xmlns="http://www.w3.org/2000/svg" viewBox="0 0 26 26" fill="#194bfb"><path d="M13,0a1,1,0,0,1,1,1V13a1,1,0,0,1-2,0V1A1,1,0,0,1,13,0Z"></path><path d="M9.58.87a1,1,0,0,1,.42.82v9a1,1,0,0,1-.5.87L1.7,16.07a1,1,0,0,1-1.48-.68A12.61,12.61,0,0,1,0,13,13,13,0,0,1,8.67.74,1,1,0,0,1,9.58.87ZM8,3.2A11,11,0,0,0,2,13H2q0,.29,0,.57l6-3.46Z"></path><path d="M12,1a1,1,0,0,1,1-1A13,13,0,1,1,1.79,19.58l-.05-.1a1,1,0,0,1,1.78-.92q.23.4.5.78A11,11,0,1,0,13,2,1,1,0,0,1,12,1Z"></path><path d="M13.48,13.88A1,1,0,0,1,12,13v-.58L2.11,18.13a1,1,0,0,0-.37,1.35,1,1,0,0,1,1.78-.92q.23.4.5.78Z"></path></svg>